<svg width="60" height="60" viewBox="0 0 60 60" fill="none" xmlns="http://www.w3.org/2000/svg">
<path opacity="0.21" fill-rule="evenodd" clip-rule="evenodd" d="M0 30V37C0 49.7025 10.2975 60 23 60H30H37C49.7025 60 60 49.7025 60 37V30V23C60 10.2975 49.7025 0 37 0H30H23C10.2975 0 0 10.2975 0 23V30Z" fill="#8280FF"/>
<path opacity="0.587821" fill-rule="evenodd" clip-rule="evenodd" d="M20.667 23.3333C20.667 26.2789 23.0548 28.6667 26.0003 28.6667C28.9458 28.6667 31.3337 26.2789 31.3337 23.3333C31.3337 20.3878 28.9458 18 26.0003 18C23.0548 18 20.667 20.3878 20.667 23.3333ZM34 28.6667C34 30.8759 35.7909 32.6667 38 32.6667C40.2091 32.6667 42 30.8759 42 28.6667C42 26.4576 40.2091 24.6667 38 24.6667C35.7909 24.6667 34 26.4576 34 28.6667Z" fill="#8280FF"/>
<path fill-rule="evenodd" clip-rule="evenodd" d="M25.9778 31.3333C19.6826 31.3333 14.5177 34.5686 14.0009 40.9322C13.9727 41.2788 14.6356 41.9999 14.97 41.9999H36.9956C37.9972 41.9999 38.0128 41.1939 37.9972 40.9333C37.6065 34.3908 32.3616 31.3333 25.9778 31.3333ZM45.2751 41.9998H40.1335V41.9998C40.1335 38.9985 39.1419 36.2289 37.4684 34.0006C42.0106 34.0502 45.7194 36.3466 45.9985 41.1998C46.0097 41.3953 45.9985 41.9998 45.2751 41.9998Z" fill="#8280FF"/>
</svg>
